<svg xmlns="http://www.w3.org/2000/svg" viewBox="0 0 905.73 211.48"><defs><style>.cls-1{font-size:68.59px;fill:#e41b0b;letter-spacing:-0.08em;}.cls-1,.cls-11,.cls-7{font-family:Arial-Black, Arial Black;}.cls-2{letter-spacing:-0.12em;}.cls-3{letter-spacing:-0.11em;}.cls-4{letter-spacing:-0.08em;}.cls-5{letter-spacing:-0.12em;}.cls-6{letter-spacing:-0.05em;}.cls-7{font-size:73.74px;fill:#17016d;letter-spacing:0.07em;}.cls-8{letter-spacing:0.08em;}.cls-9{letter-spacing:0.05em;}.cls-10{letter-spacing:0.08em;}.cls-11{font-size:62.27px;fill:#059dcc;letter-spacing:0.03em;}.cls-12{fill:#f6f21f;}.cls-12,.cls-13,.cls-14,.cls-15,.cls-16,.cls-17,.cls-18,.cls-19,.cls-20,.cls-21,.cls-22,.cls-23{stroke:#1b0277;stroke-miterlimit:10;stroke-width:3px;}.cls-13{fill:#9bc427;}.cls-14{fill:#1a8439;}.cls-15{fill:#209bba;}.cls-16{fill:#6952a3;}.cls-17{fill:#29129b;}.cls-18{fill:#f8100e;}.cls-19{fill:#fffdff;}.cls-20{fill:#f01214;}.cls-21{fill:#ff6403;}.cls-22{fill:#fccf04;}.cls-23{fill:#f6f221;}</style></defs><title>header_logo</title><g id="Layer_2" data-name="Layer 2"><g id="Layer_2-2" data-name="Layer 2"><text class="cls-1" transform="translate(263.32 60.8)">T<tspan class="cls-2" x="43.76" y="0">O</tspan><tspan class="cls-3" x="92.81" y="0">Y</tspan><tspan class="cls-4" x="138.61" y="0">O</tspan><tspan class="cls-5" x="190.54" y="0">T</tspan><tspan class="cls-6" x="231.99" y="0">A</tspan></text></g><g id="Layer_2_copy" data-name="Layer 2 copy"><text class="cls-7" transform="translate(272.32 131.22)">N<tspan class="cls-8" x="66.61" y="0">A</tspan><tspan class="cls-9" x="129.86" y="0">K</tspan><tspan class="cls-10" x="194.67" y="0">ORNPING</tspan></text><text class="cls-11" transform="translate(483.55 192.38)">CHIANGMAI</text></g><g id="Layer_4" data-name="Layer 4"><ellipse class="cls-12" cx="125.79" cy="76.27" rx="27" ry="15.46"/><path class="cls-13" d="M114.14,93.57s9.51,23.13,9.54,49.74c0,37.73-20.54,43.77-31.89,42.42-9.12-1.09-24.21-7.32-9.78-45C87.09,127.42,114.14,93.57,114.14,93.57Z"/><path class="cls-14" d="M126.07,96.73s17.18,9,33.7,29.85c17.47,22.05,17.45,53.09,7.87,59.32-7.7,5-30.08,12-38.37-20.61C123.68,143.31,126.07,96.73,126.07,96.73Z"/><path class="cls-15" d="M143.5,91.73s20.89,2,47.29,14.77c42.35,20.52,43.08,43,36.9,52.67-5,7.75-24.51,18-50.69-7.64C166,140.7,143.5,91.73,143.5,91.73Z"/><path class="cls-16" d="M154.79,79.12s18.39-7.42,45.94-7.8c44.19-.62,54.2,17,53,26.58-.93,7.69-13.69,21.68-40.77,14.05C171.67,100.31,154.79,79.12,154.79,79.12Z"/><path class="cls-17" d="M152.79,66.85a127.17,127.17,0,0,1,30.53-27c29.53-18.19,45.32-7.34,49.43,1.19,3.31,6.86,1.85,23.74-20.35,28.14C178.53,75.86,152.79,66.85,152.79,66.85Z"/><path class="cls-18" d="M139.28,56.65s-3.88-12.1,4.29-29.57C154.44,3.86,171.1,3.8,178,7.46c5.51,2.95,11.1,18.37-1.2,30.07C152.7,60.41,139.28,56.65,139.28,56.65Z"/><path class="cls-19" d="M122.73,55.8s-10.39-6.19-13.85-22.48c-4.6-21.66,7.59-30.61,14.6-31.77,5.64-.93,18,10.42,15.26,25C133.48,55,122.73,55.8,122.73,55.8Z"/><path class="cls-20" d="M107.25,57.54S96,59.92,80.42,51.14C59.76,39.47,60.62,24.68,64.36,18.92c3-4.63,17.44-8.24,27.46,3.7C111.43,46,107.25,57.54,107.25,57.54Z"/><path class="cls-21" d="M94.21,68.23a284,284,0,0,1-34.51-.7c-36.29-3-35.69-16.78-33.87-24,1.46-5.84,17.55-15.75,34.24-5.86C87.26,53.74,94.21,68.23,94.21,68.23Z"/><path class="cls-22" d="M94.37,79.71a157.6,157.6,0,0,1-38.81,24.34C19.64,119.42,4.68,106.54,2,97.32c-2.19-7.41,2.87-24.57,28-26.61C68.19,67.6,94.37,79.71,94.37,79.71Z"/><path class="cls-23" d="M101.34,92.81s-4.5,21.26-19.39,39.5c-23.88,29.26-45.7,23.45-52.41,16.58-5.4-5.52-10.13-24.75,10.65-37.57C71.9,91.75,101.34,92.81,101.34,92.81Z"/></g></g></svg>